<?xml version="1.0" standalone="no"?>
<!DOCTYPE svg PUBLIC "-//W3C//DTD SVG 20010904//EN"
 "http://www.w3.org/TR/2001/REC-SVG-20010904/DTD/svg10.dtd">
<svg version="1.0" xmlns="http://www.w3.org/2000/svg"
 width="260.000000pt" height="260.000000pt" viewBox="0 0 260.000000 260.000000"
 preserveAspectRatio="xMidYMid meet">
<metadata>
Created by potrace 1.11, written by Peter Selinger 2001-2013
</metadata>
<g transform="translate(0.000000,260.000000) scale(0.100000,-0.100000)"
fill="#000000" stroke="none">
<path d="M0 1300 l0 -1300 1300 0 1300 0 0 1300 0 1300 -1300 0 -1300 0 0
-1300z m2118 1018 c20 -20 14 -56 -13 -74 -23 -15 -27 -15 -50 0 -44 29 -28
86 25 86 14 0 31 -5 38 -12z m202 -8 c24 -45 -25 -94 -69 -71 -15 8 -21 21
-21 45 0 18 3 36 7 39 3 4 21 7 39 7 23 0 37 -6 44 -20z m-205 -190 c15 -16
17 -26 9 -48 -17 -50 -94 -39 -94 14 0 49 52 70 85 34z m201 -5 c20 -31 10
-63 -23 -71 -35 -9 -57 7 -61 42 -7 52 55 74 84 29z"/>
</g>
</svg>
